<svg viewBox="0 0 32 32" height="32" width="32" xmlns="http://www.w3.org/2000/svg" xml:space="preserve" style="fill-rule:evenodd;clip-rule:evenodd;stroke-linejoin:round;stroke-miterlimit:2"><path d="M2 20v-2.8a3 3 0 0 1 .425-1.563A2.798 2.798 0 0 1 3.6 14.55c1-.5 2.038-.883 3.113-1.15A13.58 13.58 0 0 1 10 13c.417 0 .833.029 1.25.087.417.059.833.13 1.25.213v1.575c-.75.367-1.354.85-1.812 1.45-.459.6-.688 1.383-.688 2.35V20H2Zm10 0v-1.4c0-.4.104-.771.313-1.112.208-.342.504-.588.887-.738.6-.25 1.221-.437 1.863-.562a10.1 10.1 0 0 1 3.875 0 9.613 9.613 0 0 1 1.862.562c.383.15.679.396.888.738.208.341.312.712.312 1.112V20H12Zm5-5c-.7 0-1.292-.242-1.775-.725-.483-.483-.725-1.075-.725-1.775s.242-1.292.725-1.775C15.708 10.242 16.3 10 17 10s1.292.242 1.775.725c.483.483.725 1.075.725 1.775s-.242 1.292-.725 1.775C18.292 14.758 17.7 15 17 15Zm-7-3c-1.1 0-2.042-.392-2.825-1.175C6.392 10.042 6 9.1 6 8s.392-2.042 1.175-2.825C7.958 4.392 8.9 4 10 4s2.042.392 2.825 1.175C13.608 5.958 14 6.9 14 8s-.392 2.042-1.175 2.825C12.042 11.608 11.1 12 10 12Z" style="fill-rule:nonzero" transform="matrix(1.4 0 0 1.4 -.8 -.8)"/></svg>